# xmcd
#
# Track frame offsets: 
#        150
#        13926
#        28855
#        48512
#        62410
#        77869
#        89395
#        104693
#        118728
#        137495
#        158673
#        171951
#
# Disc length: 2460 seconds
#
# Revision: 0
# Processed by: cddbd v1.5.2PL0 Copyright (c) Steve Scherf et al.
# Submitted via: ExactAudioCopy v0.99pb4
#
DISCID=9e099a0c
DTITLE=Peggy Ratusz - It Takes A Lot Of Faith
DYEAR=2005
DGENRE=Blues
TTITLE0=Old Fashioned So N' So
TTITLE1=Crazy Like That
TTITLE2=Sexual High
TTITLE3=It Takes A Whole Lot Of Faith
TTITLE4=Foreplay
TTITLE5=A Room Full Of Blues 
TTITLE6=More Than I Show
TTITLE7=All Because Of You
TTITLE8=It's My Song
TTITLE9=Common Thread
TTITLE10=I'm Already Gone
TTITLE11=The Sweetest Heart
EXTD=
EXTT0=
EXTT1=
EXTT2=
EXTT3=
EXTT4=
EXTT5=
EXTT6=
EXTT7=
EXTT8=
EXTT9=
EXTT10=
EXTT11=
PLAYORDER=
